<svg xmlns="http://www.w3.org/2000/svg" viewBox="0 0 220 220" fill="none">
  <ellipse cx="110" cy="132" rx="68" ry="62" fill="rgba(196,186,158,0.2)"/>
  <path d="M53 132 C53 95 80 69 110 69 C140 69 167 95 167 132" stroke="rgba(214,201,171,0.36)" stroke-width="4"/>
  <path d="M53 132 C53 169 80 195 110 195 C140 195 167 169 167 132" stroke="rgba(214,201,171,0.36)" stroke-width="4"/>
  <path d="M84 120C82 113 83 104 87 97" stroke="rgba(229,214,183,0.36)" stroke-width="4"/>
  <path d="M136 120C138 113 137 104 133 97" stroke="rgba(229,214,183,0.36)" stroke-width="4"/>
  <ellipse cx="95" cy="112" rx="11" ry="16" fill="rgba(252,246,223,0.5)"/>
  <ellipse cx="125" cy="112" rx="11" ry="16" fill="rgba(252,246,223,0.5)"/>
  <path d="M98 147C102 151 117 151 121 147" stroke="rgba(234,217,185,0.44)" stroke-width="3"/>
  <path d="M100 173C103 175 118 175 121 173" stroke="rgba(234,217,185,0.32)" stroke-width="2"/>
</svg>